# Wavefront OBJ file automatically generated by Tiled2Unity

# Vertices (Count = 169)
v 0 -16 0
v -16 -16 0
v -16 0 0
v 0 0 0
v -32 -16 0
v -32 0 0
v -48 -16 0
v -48 0 0
v -64 -16 0
v -64 0 0
v -80 -16 0
v -80 0 0
v -96 -16 0
v -96 0 0
v -112 -16 0
v -112 0 0
v -128 -16 0
v -128 0 0
v -144 -16 0
v -144 0 0
v -160 -16 0
v -160 0 0
v -176 -16 0
v -176 0 0
v -192 -16 0
v -192 0 0
v 0 -32 0
v -16 -32 0
v -32 -32 0
v -48 -32 0
v -64 -32 0
v -80 -32 0
v -96 -32 0
v -112 -32 0
v -128 -32 0
v -144 -32 0
v -160 -32 0
v -176 -32 0
v -192 -32 0
v 0 -48 0
v -16 -48 0
v -32 -48 0
v -48 -48 0
v -64 -48 0
v -80 -48 0
v -96 -48 0
v -112 -48 0
v -128 -48 0
v -144 -48 0
v -160 -48 0
v -176 -48 0
v -192 -48 0
v 0 -64 0
v -16 -64 0
v -32 -64 0
v -48 -64 0
v -64 -64 0
v -80 -64 0
v -96 -64 0
v -112 -64 0
v -128 -64 0
v -144 -64 0
v -160 -64 0
v -176 -64 0
v -192 -64 0
v 0 -80 0
v -16 -80 0
v -32 -80 0
v -48 -80 0
v -64 -80 0
v -80 -80 0
v -96 -80 0
v -112 -80 0
v -128 -80 0
v -144 -80 0
v -160 -80 0
v -176 -80 0
v -192 -80 0
v 0 -96 0
v -16 -96 0
v -32 -96 0
v -48 -96 0
v -64 -96 0
v -80 -96 0
v -96 -96 0
v -112 -96 0
v -128 -96 0
v -144 -96 0
v -160 -96 0
v -176 -96 0
v -192 -96 0
v 0 -112 0
v -16 -112 0
v -32 -112 0
v -48 -112 0
v -64 -112 0
v -80 -112 0
v -96 -112 0
v -112 -112 0
v -128 -112 0
v -144 -112 0
v -160 -112 0
v -176 -112 0
v -192 -112 0
v 0 -128 0
v -16 -128 0
v -32 -128 0
v -48 -128 0
v -64 -128 0
v -80 -128 0
v -96 -128 0
v -112 -128 0
v -128 -128 0
v -144 -128 0
v -160 -128 0
v -176 -128 0
v -192 -128 0
v 0 -144 0
v -16 -144 0
v -32 -144 0
v -48 -144 0
v -64 -144 0
v -80 -144 0
v -96 -144 0
v -112 -144 0
v -128 -144 0
v -144 -144 0
v -160 -144 0
v -176 -144 0
v -192 -144 0
v 0 -160 0
v -16 -160 0
v -32 -160 0
v -48 -160 0
v -64 -160 0
v -80 -160 0
v -96 -160 0
v -112 -160 0
v -128 -160 0
v -144 -160 0
v -160 -160 0
v -176 -160 0
v -192 -160 0
v 0 -176 0
v -16 -176 0
v -32 -176 0
v -48 -176 0
v -64 -176 0
v -80 -176 0
v -96 -176 0
v -112 -176 0
v -128 -176 0
v -144 -176 0
v -160 -176 0
v -176 -176 0
v -192 -176 0
v 0 -192 0
v -16 -192 0
v -32 -192 0
v -48 -192 0
v -64 -192 0
v -80 -192 0
v -96 -192 0
v -112 -192 0
v -128 -192 0
v -144 -192 0
v -160 -192 0
v -176 -192 0
v -192 -192 0

# Texture cooridinates (Count = 196)
vt 0.0001220703 0.9167888
vt 0.09078702 0.9167888
vt 0.09078702 0.9998779
vt 0.0001220703 0.9998779
vt 0.4546675 0.9167888
vt 0.5453325 0.9167888
vt 0.5453325 0.9998779
vt 0.4546675 0.9998779
vt 0.5455766 0.9167888
vt 0.6362416 0.9167888
vt 0.6362416 0.9998779
vt 0.5455766 0.9998779
vt 0.6364857 0.9167888
vt 0.7271507 0.9167888
vt 0.7271507 0.9998779
vt 0.6364857 0.9998779
vt 0.7273948 0.9167888
vt 0.8180597 0.9167888
vt 0.8180597 0.9998779
vt 0.7273948 0.9998779
vt 0.909213 0.9167888
vt 0.9998779 0.9167888
vt 0.9998779 0.9998779
vt 0.909213 0.9998779
vt 0.0001220703 0.8334554
vt 0.09078702 0.8334554
vt 0.09078702 0.9165446
vt 0.0001220703 0.9165446
vt 0.4546675 0.8334554
vt 0.5453325 0.8334554
vt 0.5453325 0.9165446
vt 0.4546675 0.9165446
vt 0.5455766 0.8334554
vt 0.6362416 0.8334554
vt 0.6362416 0.9165446
vt 0.5455766 0.9165446
vt 0.6364857 0.8334554
vt 0.7271507 0.8334554
vt 0.7271507 0.9165446
vt 0.6364857 0.9165446
vt 0.7273948 0.8334554
vt 0.8180597 0.8334554
vt 0.8180597 0.9165446
vt 0.7273948 0.9165446
vt 0.909213 0.8334554
vt 0.9998779 0.8334554
vt 0.9998779 0.9165446
vt 0.909213 0.9165446
vt 0.0001220703 0.7501221
vt 0.09078702 0.7501221
vt 0.09078702 0.8332112
vt 0.0001220703 0.8332112
vt 0.2728494 0.6667887
vt 0.3635143 0.6667887
vt 0.3635143 0.7498779
vt 0.2728494 0.7498779
vt 0.2728494 0.7501221
vt 0.3635143 0.7501221
vt 0.3635143 0.8332112
vt 0.2728494 0.8332112
vt 0.3637584 0.6667887
vt 0.4544234 0.6667887
vt 0.4544234 0.7498779
vt 0.3637584 0.7498779
vt 0.909213 0.7501221
vt 0.9998779 0.7501221
vt 0.9998779 0.8332112
vt 0.909213 0.8332112
vt 0.6364857 0.4167888
vt 0.7271507 0.4167888
vt 0.7271507 0.4998779
vt 0.6364857 0.4998779
vt 0.7273948 0.4167888
vt 0.8180597 0.4167888
vt 0.8180597 0.4998779
vt 0.7273948 0.4998779
vt 0.8183039 0.4167888
vt 0.9089689 0.4167888
vt 0.9089689 0.4998779
vt 0.8183039 0.4998779
vt 0.909213 0.4167888
vt 0.9998779 0.4167888
vt 0.9998779 0.4998779
vt 0.909213 0.4998779
vt 0.909213 0.6667887
vt 0.9998779 0.6667887
vt 0.9998779 0.7498779
vt 0.909213 0.7498779
vt 0.6364857 0.3334554
vt 0.7271507 0.3334554
vt 0.7271507 0.4165446
vt 0.6364857 0.4165446
vt 0.7273948 0.3334554
vt 0.8180597 0.3334554
vt 0.8180597 0.4165446
vt 0.7273948 0.4165446
vt 0.8183039 0.3334554
vt 0.9089689 0.3334554
vt 0.9089689 0.4165446
vt 0.8183039 0.4165446
vt 0.909213 0.3334554
vt 0.9998779 0.3334554
vt 0.9998779 0.4165446
vt 0.909213 0.4165446
vt 0.6364857 0.2501221
vt 0.7271507 0.2501221
vt 0.7271507 0.3332112
vt 0.6364857 0.3332112
vt 0.7273948 0.2501221
vt 0.8180597 0.2501221
vt 0.8180597 0.3332112
vt 0.7273948 0.3332112
vt 0.8183039 0.2501221
vt 0.9089689 0.2501221
vt 0.9089689 0.3332112
vt 0.8183039 0.3332112
vt 0.909213 0.2501221
vt 0.9998779 0.2501221
vt 0.9998779 0.3332112
vt 0.909213 0.3332112
vt 0.6364857 0.1667888
vt 0.7271507 0.1667888
vt 0.7271507 0.2498779
vt 0.6364857 0.2498779
vt 0.7273948 0.1667888
vt 0.8180597 0.1667888
vt 0.8180597 0.2498779
vt 0.7273948 0.2498779
vt 0.8183039 0.1667888
vt 0.9089689 0.1667888
vt 0.9089689 0.2498779
vt 0.8183039 0.2498779
vt 0.909213 0.1667888
vt 0.9998779 0.1667888
vt 0.9998779 0.2498779
vt 0.909213 0.2498779
vt 0.0001220703 0.5834554
vt 0.09078702 0.5834554
vt 0.09078702 0.6665446
vt 0.0001220703 0.6665446
vt 0.0001220703 0.4167888
vt 0.09078702 0.4167888
vt 0.09078702 0.4998779
vt 0.0001220703 0.4998779
vt 0.1819403 0.4167888
vt 0.2726052 0.4167888
vt 0.2726052 0.4998779
vt 0.1819403 0.4998779
vt 0.0001220703 0.5001221
vt 0.09078702 0.5001221
vt 0.09078702 0.5832113
vt 0.0001220703 0.5832113
vt 0.0001220703 0.3334554
vt 0.09078702 0.3334554
vt 0.09078702 0.4165446
vt 0.0001220703 0.4165446
vt 0.1819403 0.3334554
vt 0.2726052 0.3334554
vt 0.2726052 0.4165446
vt 0.1819403 0.4165446
vt 0.3637584 0.4167888
vt 0.4544234 0.4167888
vt 0.4544234 0.4998779
vt 0.3637584 0.4998779
vt 0.3637584 0.3334554
vt 0.4544234 0.3334554
vt 0.4544234 0.4165446
vt 0.3637584 0.4165446
vt 0.3637584 0.2501221
vt 0.4544234 0.2501221
vt 0.4544234 0.3332112
vt 0.3637584 0.3332112
vt 0.4546675 0.08345538
vt 0.5453325 0.08345538
vt 0.5453325 0.1665446
vt 0.4546675 0.1665446
vt 0.5455766 0.08345538
vt 0.6362416 0.08345538
vt 0.6362416 0.1665446
vt 0.5455766 0.1665446
vt 0.6364857 0.08345538
vt 0.7271507 0.08345538
vt 0.7271507 0.1665446
vt 0.6364857 0.1665446
vt 0.4546675 0.0001220703
vt 0.5453325 0.0001220703
vt 0.5453325 0.08321124
vt 0.4546675 0.08321124
vt 0.5455766 0.0001220703
vt 0.6362416 0.0001220703
vt 0.6362416 0.08321124
vt 0.5455766 0.08321124
vt 0.6364857 0.0001220703
vt 0.7271507 0.0001220703
vt 0.7271507 0.08321124
vt 0.6364857 0.08321124

# Normal
vn 0 0 -1

# Groups (Count = 2)

g mesh_0002
f 1/1/1 2/2/1 3/3/1 4/4/1
f 2/5/1 5/6/1 6/7/1 3/8/1
f 5/9/1 7/10/1 8/11/1 6/12/1
f 7/13/1 9/14/1 10/15/1 8/16/1
f 9/17/1 11/18/1 12/19/1 10/20/1
f 11/5/1 13/6/1 14/7/1 12/8/1
f 13/9/1 15/10/1 16/11/1 14/12/1
f 15/5/1 17/6/1 18/7/1 16/8/1
f 17/9/1 19/10/1 20/11/1 18/12/1
f 19/13/1 21/14/1 22/15/1 20/16/1
f 21/17/1 23/18/1 24/19/1 22/20/1
f 23/21/1 25/22/1 26/23/1 24/24/1
f 27/25/1 28/26/1 2/27/1 1/28/1
f 28/29/1 29/30/1 5/31/1 2/32/1
f 29/33/1 30/34/1 7/35/1 5/36/1
f 30/37/1 31/38/1 9/39/1 7/40/1
f 31/41/1 32/42/1 11/43/1 9/44/1
f 32/29/1 33/30/1 13/31/1 11/32/1
f 33/33/1 34/34/1 15/35/1 13/36/1
f 34/29/1 35/30/1 17/31/1 15/32/1
f 35/33/1 36/34/1 19/35/1 17/36/1
f 36/37/1 37/38/1 21/39/1 19/40/1
f 37/41/1 38/42/1 23/43/1 21/44/1
f 38/45/1 39/46/1 25/47/1 23/48/1
f 40/49/1 41/50/1 28/51/1 27/52/1
f 41/53/1 42/54/1 29/55/1 28/56/1
f 42/57/1 43/58/1 30/59/1 29/60/1
f 43/57/1 44/58/1 31/59/1 30/60/1
f 44/57/1 45/58/1 32/59/1 31/60/1
f 45/57/1 46/58/1 33/59/1 32/60/1
f 46/57/1 47/58/1 34/59/1 33/60/1
f 47/57/1 48/58/1 35/59/1 34/60/1
f 48/53/1 49/54/1 36/55/1 35/56/1
f 49/53/1 50/54/1 37/55/1 36/56/1
f 50/61/1 51/62/1 38/63/1 37/64/1
f 51/65/1 52/66/1 39/67/1 38/68/1
f 53/49/1 54/50/1 41/51/1 40/52/1
f 54/53/1 55/54/1 42/55/1 41/56/1
f 55/69/1 56/70/1 43/71/1 42/72/1
f 56/73/1 57/74/1 44/75/1 43/76/1
f 57/77/1 58/78/1 45/79/1 44/80/1
f 58/73/1 59/74/1 46/75/1 45/76/1
f 59/73/1 60/74/1 47/75/1 46/76/1
f 60/77/1 61/78/1 48/79/1 47/80/1
f 61/77/1 62/78/1 49/79/1 48/80/1
f 62/81/1 63/82/1 50/83/1 49/84/1
f 63/61/1 64/62/1 51/63/1 50/64/1
f 64/85/1 65/86/1 52/87/1 51/88/1
f 66/49/1 67/50/1 54/51/1 53/52/1
f 67/53/1 68/54/1 55/55/1 54/56/1
f 68/89/1 69/90/1 56/91/1 55/92/1
f 69/93/1 70/94/1 57/95/1 56/96/1
f 70/97/1 71/98/1 58/99/1 57/100/1
f 71/93/1 72/94/1 59/95/1 58/96/1
f 72/93/1 73/94/1 60/95/1 59/96/1
f 73/97/1 74/98/1 61/99/1 60/100/1
f 74/97/1 75/98/1 62/99/1 61/100/1
f 75/101/1 76/102/1 63/103/1 62/104/1
f 76/61/1 77/62/1 64/63/1 63/64/1
f 77/65/1 78/66/1 65/67/1 64/68/1
f 79/49/1 80/50/1 67/51/1 66/52/1
f 80/53/1 81/54/1 68/55/1 67/56/1
f 81/105/1 82/106/1 69/107/1 68/108/1
f 82/109/1 83/110/1 70/111/1 69/112/1
f 83/113/1 84/114/1 71/115/1 70/116/1
f 84/109/1 85/110/1 72/111/1 71/112/1
f 85/109/1 86/110/1 73/111/1 72/112/1
f 86/113/1 87/114/1 74/115/1 73/116/1
f 87/113/1 88/114/1 75/115/1 74/116/1
f 88/117/1 89/118/1 76/119/1 75/120/1
f 89/61/1 90/62/1 77/63/1 76/64/1
f 90/85/1 91/86/1 78/87/1 77/88/1
f 92/49/1 93/50/1 80/51/1 79/52/1
f 93/53/1 94/54/1 81/55/1 80/56/1
f 94/121/1 95/122/1 82/123/1 81/124/1
f 95/125/1 96/126/1 83/127/1 82/128/1
f 96/129/1 97/130/1 84/131/1 83/132/1
f 97/125/1 98/126/1 85/127/1 84/128/1
f 98/125/1 99/126/1 86/127/1 85/128/1
f 99/129/1 100/130/1 87/131/1 86/132/1
f 100/129/1 101/130/1 88/131/1 87/132/1
f 101/133/1 102/134/1 89/135/1 88/136/1
f 102/53/1 103/54/1 90/55/1 89/56/1
f 103/65/1 104/66/1 91/67/1 90/68/1
f 105/49/1 106/50/1 93/51/1 92/52/1
f 106/53/1 107/54/1 94/55/1 93/56/1
f 107/53/1 108/54/1 95/55/1 94/56/1
f 108/61/1 109/62/1 96/63/1 95/64/1
f 109/53/1 110/54/1 97/55/1 96/56/1
f 110/61/1 111/62/1 98/63/1 97/64/1
f 111/57/1 112/58/1 99/59/1 98/60/1
f 112/53/1 113/54/1 100/55/1 99/56/1
f 113/61/1 114/62/1 101/63/1 100/64/1
f 114/61/1 115/62/1 102/63/1 101/64/1
f 115/53/1 116/54/1 103/55/1 102/56/1
f 116/65/1 117/66/1 104/67/1 103/68/1
f 118/49/1 119/50/1 106/51/1 105/52/1
f 119/53/1 120/54/1 107/55/1 106/56/1
f 120/61/1 121/62/1 108/63/1 107/64/1
f 121/61/1 122/62/1 109/63/1 108/64/1
f 122/61/1 123/62/1 110/63/1 109/64/1
f 123/61/1 124/62/1 111/63/1 110/64/1
f 124/61/1 125/62/1 112/63/1 111/64/1
f 125/61/1 126/62/1 113/63/1 112/64/1
f 126/61/1 127/62/1 114/63/1 113/64/1
f 127/61/1 128/62/1 115/63/1 114/64/1
f 128/53/1 129/54/1 116/55/1 115/56/1
f 129/85/1 130/86/1 117/87/1 116/88/1
f 131/49/1 132/50/1 119/51/1 118/52/1
f 132/53/1 133/54/1 120/55/1 119/56/1
f 133/61/1 134/62/1 121/63/1 120/64/1
f 134/61/1 135/62/1 122/63/1 121/64/1
f 135/61/1 136/62/1 123/63/1 122/64/1
f 136/61/1 137/62/1 124/63/1 123/64/1
f 137/61/1 138/62/1 125/63/1 124/64/1
f 138/61/1 139/62/1 126/63/1 125/64/1
f 139/61/1 140/62/1 127/63/1 126/64/1
f 140/61/1 141/62/1 128/63/1 127/64/1
f 141/53/1 142/54/1 129/55/1 128/56/1
f 142/65/1 143/66/1 130/67/1 129/68/1
f 144/137/1 145/138/1 132/139/1 131/140/1
f 145/137/1 146/138/1 133/139/1 132/140/1
f 146/137/1 147/138/1 134/139/1 133/140/1
f 147/137/1 148/138/1 135/139/1 134/140/1
f 148/137/1 149/138/1 136/139/1 135/140/1
f 149/141/1 150/142/1 137/143/1 136/144/1
f 150/145/1 151/146/1 138/147/1 137/148/1
f 151/137/1 152/138/1 139/139/1 138/140/1
f 152/137/1 153/138/1 140/139/1 139/140/1
f 153/137/1 154/138/1 141/139/1 140/140/1
f 154/137/1 155/138/1 142/139/1 141/140/1
f 155/137/1 156/138/1 143/139/1 142/140/1
f 157/149/1 158/150/1 145/151/1 144/152/1
f 158/149/1 159/150/1 146/151/1 145/152/1
f 159/149/1 160/150/1 147/151/1 146/152/1
f 160/149/1 161/150/1 148/151/1 147/152/1
f 161/149/1 162/150/1 149/151/1 148/152/1
f 162/153/1 163/154/1 150/155/1 149/156/1
f 163/157/1 164/158/1 151/159/1 150/160/1
f 164/149/1 165/150/1 152/151/1 151/152/1
f 165/149/1 166/150/1 153/151/1 152/152/1
f 166/149/1 167/150/1 154/151/1 153/152/1
f 167/149/1 168/150/1 155/151/1 154/152/1
f 168/149/1 169/150/1 156/151/1 155/152/1

g mesh_0003
f 2/161/1 5/162/1 6/163/1 3/164/1
f 21/161/1 23/162/1 24/163/1 22/164/1
f 28/165/1 29/166/1 5/167/1 2/168/1
f 37/165/1 38/166/1 23/167/1 21/168/1
f 41/169/1 42/170/1 29/171/1 28/172/1
f 45/173/1 46/174/1 33/175/1 32/176/1
f 46/177/1 47/178/1 34/179/1 33/180/1
f 47/181/1 48/182/1 35/183/1 34/184/1
f 50/169/1 51/170/1 38/171/1 37/172/1
f 58/185/1 59/186/1 46/187/1 45/188/1
f 59/189/1 60/190/1 47/191/1 46/192/1
f 60/193/1 61/194/1 48/195/1 47/196/1
f 93/161/1 94/162/1 81/163/1 80/164/1
f 102/161/1 103/162/1 90/163/1 89/164/1
f 106/165/1 107/166/1 94/167/1 93/168/1
f 115/165/1 116/166/1 103/167/1 102/168/1
f 119/169/1 120/170/1 107/171/1 106/172/1
f 128/169/1 129/170/1 116/171/1 115/172/1

